{"title":"18+ Clinger 2015 Movies BRRip XviD AAC New Source +Sample ☻rDX☻","uid":15729407,"size":740301976,"categoryP":"video","categoryS":"movies","magnet":"?xt=urn:btih:5882e667f67d39e8be25d310cb6637e0f4cbc0f8&amp;dn=18%2B+Clinger+2015+Movies+BRRip+XviD+AAC+New+Source+%2BSample+%E2%98%BBrDX%E2%98%BB&amp;tr=udp%3A%2F%2Ftracker.leechers-paradise.org%3A6969&amp;tr=udp%3A%2F%2Fzer0day.ch%3A1337&amp;tr=udp%3A%2F%2Fopen.demonii.com%3A1337&amp;tr=udp%3A%2F%2Ftracker.coppersurfer.tk%3A6969&amp;tr=udp%3A%2F%2Fexodus.desync.com%3A6969","seeders":1,"leechers":2,"uploader":"basicssom","files":2,"time":1472765983,"description":"----------------------------------------------------------------\r\n18+ Clinger 2015 English Movies BRRip XviD AAC New Source with Sample ☻rDX☻\r\n\r\nSCREEN SHOTS &amp; POSTER:\r\n  \nhttp://postimage.co.nr/2016/9/sale/index.htm  \nhttp://postimage.co.nr/2016/9/sale/1.html  \nhttp://postimage.co.nr/2016/9/sale/2.html  \nhttp://postimage.co.nr/2016/9/sale/3.html  \nhttp://postimage.co.nr/2016/9/sale/4.html  \nhttp://postimage.co.nr/2016/9/sale/5.html  \nhttp://postimage.co.nr/2016/9/sale/6.html  \nhttp://postimage.co.nr/2016/9/sale/7.html  \nhttp://postimage.co.nr/2016/9/sale/8.html  \nhttp://postimage.co.nr/2016/9/sale/9.html  \nhttp://postimage.co.nr/2016/9/sale/10.html\r\n\r\nFormat                                   : Matroska\r\nFormat version                           : Version 4 / Version 2\r\nFile size                                : 698 MiB\r\nDuration                                 : 1 h 20 min\r\nOverall bit rate mode                    : Constant\r\nOverall bit rate                         : 1 214 kb/s\r\nMovie name                               : 18+ Clinger 2015 English Movies BRRip XviD AAC New Source ☻rDX☻\r\n\r\nVideo\r\nID                                       : 2\r\nFormat                                   : AVC\r\nFormat/Info                              : Advanced Video Codec\r\nFormat profile                           :   \r\nFormat settings, CABAC                   : Yes\r\nFormat settings, ReFrames                : 2 frames\r\nFormat settings, GOP                     : M=1, N=12\r\nCodec ID                                 : V_MPEG4/ISO/AVC\r\nDuration                                 : 1 h 20 min\r\nBit rate mode                            : Constant\r\nBit rate                                 : 767 kb/s\r\nWidth                                    : 720 pixels\r\nHeight                                   : 400 pixels\r\nDisplay aspect ratio                     : 16:9\r\nFrame rate mode                          : Constant\r\nFrame rate                               : 23.976 (24000/1001) FPS\r\nColor space                              : YUV\r\nChroma subsampling                       : 4:2:0\r\nBit depth                                : 8 bits\r\nScan type                                : Progressive\r\nBits/(Pixel*Frame)                       : 0.111\r\nStream size                              : 426 MiB (61%)\r\nTitle                                    : ☻rDX☻\r\nDefault                                  : Yes\r\nForced                                   : No\r\n\r\nAudio\r\nID                                       : 1\r\nFormat                                   : AC-3\r\nFormat/Info                              : Audio Coding 3\r\nMode extension                           : CM (complete main)\r\nFormat settings, Endianness              : Big\r\nCodec ID                                 : A_AC3\r\nDuration                                 : 1 h 20 min\r\nBit rate mode                            : Constant\r\nBit rate                                 : 448 kb/s\r\nChannel(s)                               : 6 channels\r\nChannel positions                        : Front: L C R, Side: L R, LFE\r\nSampling rate                            : 48.0 kHz\r\nFrame rate                               : 31.250 FPS (1536 spf)\r\nCompression mode                         : Lossy\r\nStream size                              : 258 MiB (37%)\r\nTitle                                    : ☻rDX☻\r\nDefault                                  : Yes\r\nForced                                   : No\r\n\r\nIMDB \nhttp://www.imdb.com/title/tt3043590/","torrent":{"xt":"urn:btih:5882e667f67d39e8be25d310cb6637e0f4cbc0f8","amp;dn":"18%2B+Clinger+2015+Movies+BRRip+XviD+AAC+New+Source+%2BSample+%E2%98%BBrDX%E2%98%BB","amp;tr":["udp%3A%2F%2Ftracker.leechers-paradise.org%3A6969","udp%3A%2F%2Fzer0day.ch%3A1337","udp%3A%2F%2Fopen.demonii.com%3A1337","udp%3A%2F%2Ftracker.coppersurfer.tk%3A6969","udp%3A%2F%2Fexodus.desync.com%3A6969"],"infoHash":"5882e667f67d39e8be25d310cb6637e0f4cbc0f8","infoHashBuffer":{"type":"Buffer","data":[88,130,230,103,246,125,57,232,190,37,211,16,203,102,55,224,244,203,192,248]},"announce":[],"urlList":[]}}